<?xml version="1.0" encoding="UTF-8"?>
<svg width="62px" height="32px" viewBox="0 0 62 32" version="1.1" xmlns="http://www.w3.org/2000/svg" xmlns:xlink="http://www.w3.org/1999/xlink">
    <!-- Generator: Sketch 52.6 (67491) - http://www.bohemiancoding.com/sketch -->
    <title>amu-blue</title>
    <desc>Created with Sketch.</desc>
    <g id="Page-1" stroke="none" stroke-width="1" fill="none" fill-rule="evenodd">
        <g id="amu-blue" fill="#1093D3">
            <g id="Group" transform="translate(4.000000, 4.000000)">
                <g id="Group-2" transform="translate(4.926897, 6.697266) rotate(-180.000000) translate(-4.926897, -6.697266) translate(0.426897, 0.697266)" fill-rule="nonzero">
                    <path d="M3.78252319,3.68859706 L3.78252319,3.55573987 L3.78252319,0.662045834 C3.79860712,0.451452354 3.95096263,0.36378608 4.06293155,0.282659427 C4.18161683,0.20657005 4.29314389,0.160350835 4.29765093,0.15831825 L4.35571216,0.133750483 L4.41395014,0.15831825 C4.4183688,0.160350835 4.52865863,0.20657005 4.64637181,0.282659427 C4.75701513,0.363520961 4.90839853,0.452512834 4.9236871,0.662045834 L4.92395222,3.55573987 C4.92389647,3.55573987 4.92385244,3.60332574 4.92382014,3.68934388 C4.99824399,3.64639134 5.03941654,3.62263164 5.03941654,3.62263164 L7.54524034,2.175873 C7.59755731,2.14582609 7.65279057,2.13645852 7.70183777,2.13645852 C7.97650183,2.1490959 8.22412371,2.36737785 8.2391472,2.37002905 L8.28960829,2.40811793 L8.29712006,2.47068619 C8.29773863,2.47457462 8.30763646,2.55402218 8.30763646,2.65830262 C8.30737131,2.73483387 8.30286429,2.82435598 8.28121286,2.91299436 C8.25876606,2.99933504 8.22288651,3.09910845 8.11568971,3.16423954 L5.60986593,4.61099819 C5.60992151,4.61099819 5.5690064,4.63465694 5.49497551,4.67743217 C5.53337607,4.69960751 5.57194042,4.72187737 5.61062088,4.74421422 L8.1160912,6.19070774 C8.2231112,6.25619233 8.2589024,6.35596574 8.28170269,6.44221804 C8.30300063,6.53120991 8.30786114,6.62037854 8.30786114,6.69682141 C8.30786114,6.80110185 8.29796337,6.88028429 8.29769823,6.88426109 L8.28983303,6.94709448 L8.23954863,6.98500661 L8.1491428,6.86596782 L8.23954863,6.98500661 C8.22470194,6.98765781 7.97699166,7.20620488 7.70197411,7.219019 C7.65275017,7.219019 7.59742851,7.20912119 7.54511154,7.17907429 L5.03990637,5.73266913 C5.00111167,5.71027558 4.96243449,5.6879495 4.92392287,5.66571865 C4.92393226,5.71021148 4.92394205,5.75489505 4.92395222,5.79971371 L4.92395222,11.0547413 C4.90769154,11.2654231 4.75524767,11.3532661 4.643102,11.4341277 C4.52450509,11.5103054 4.41333153,11.5567898 4.40855937,11.5588223 L4.35032139,11.5833901 L4.29226016,11.5588223 C4.28766475,11.5564362 4.17746329,11.5103054 4.05992686,11.4341277 C3.94910679,11.3535313 3.79807688,11.2642742 3.78252319,11.0547413 L3.78252319,5.79971371 L3.78252319,5.66603072 C3.74403993,5.68823432 3.70539165,5.71053224 3.66662631,5.73289673 L1.16124438,7.17965537 C1.10919253,7.20970228 1.05395924,7.21924659 1.00464697,7.21924659 C0.729364257,7.20669759 0.482007501,6.9878854 0.466984047,6.98541095 L0.416788035,6.94758719 L0.409011188,6.8851073 C0.408746068,6.88086538 0.39849477,6.80159457 0.39849477,6.69731412 C0.39875989,6.62087125 0.403266926,6.53134914 0.424918375,6.44271075 C0.447453557,6.35619333 0.483509846,6.25633155 0.590529865,6.19120046 L3.09626529,4.74444181 C3.1350567,4.72203841 3.17373206,4.69970267 3.21224316,4.67746238 C3.13788431,4.63452268 3.09675512,4.61077059 3.09675512,4.61077059 L0.590754573,3.1641887 C0.483646182,3.09888086 0.447678265,2.99910745 0.42505471,2.91285514 C0.403756754,2.82395164 0.398984598,2.73434115 0.398984598,2.65807503 C0.398984598,2.55352947 0.408882403,2.4740819 0.409501016,2.47010511 L0.417277863,2.40762521 L0.467473875,2.36944796 C0.482497329,2.36706189 0.729854085,2.14886831 1.0047833,2.1363193 L1.00708101,2.1363193 C1.05550955,2.1363193 1.10959398,2.14577524 1.16138071,2.17538028 L3.66711614,3.62205055 C3.66719032,3.62205055 3.70828413,3.6457494 3.78252319,3.68859706 Z M4.29252528,11.2828326 L4.35058651,11.4206949 L4.29252528,11.2828326 Z" id="Combined-Shape"></path>
                </g>
                <path d="M17.6704102,14.3730469 L14.9916992,6.28613281 L14.940918,6.28613281 L12.262207,14.3730469 L17.6704102,14.3730469 Z M18.4702148,16.8613281 L11.449707,16.8613281 L10.027832,21 L7.05712891,21 L13.7856445,2.49023438 L16.1342773,2.49023438 L22.862793,21 L19.9047852,21 L18.4702148,16.8613281 Z M24.8432617,2.49023438 L27.4838867,2.49023438 L32.7905273,14.5507812 L37.9956055,2.49023438 L40.6489258,2.49023438 L40.6489258,21 L37.8432617,21 L37.8432617,9.45996094 L37.7797852,9.45996094 L33.9077148,18.3466797 L31.5717773,18.3466797 L27.699707,9.45996094 L27.6489258,9.45996094 L27.6489258,21 L24.8432617,21 L24.8432617,2.49023438 Z M44.2036133,2.49023438 L47.0092773,2.49023438 L47.0092773,14.4238281 C47.0262045,15.6849021 47.3901332,16.6455045 48.1010742,17.3056641 C48.7950881,17.9996779 49.6879828,18.3466797 50.7797852,18.3466797 C51.8715875,18.3466797 52.7729457,17.9996779 53.4838867,17.3056641 C54.1779006,16.6455045 54.5333658,15.6849021 54.550293,14.4238281 L54.550293,2.49023438 L57.355957,2.49023438 L57.355957,14.7285156 C57.3221027,16.6751399 56.6915751,18.2197208 55.4643555,19.3623047 C54.2286722,20.5387429 52.6671644,21.1354166 50.7797852,21.1523438 C48.9262603,21.1354166 47.3774476,20.5387429 46.1333008,19.3623047 C44.8637632,18.2197208 44.2205404,16.6751399 44.2036133,14.7285156 L44.2036133,2.49023438 Z" id="AMU" stroke="#1093D3"></path>
            </g>
            <g id="amu-white">
                <path d="M0,15.9918224 C0,17.6679834 0.140325466,19.23729 0.421188265,20.6976342 C0.701839197,22.1581237 1.12719415,23.5962973 1.69972487,25.0120825 C2.27133752,26.4277222 2.97847335,27.8462695 3.82000242,29.2684514 C4.32692552,30.134772 4.77615063,30.738754 5.09846841,31.1422568 C5.43145007,31.5592799 5.7840646,32 6.26951868,32 C6.79868763,32 7.06260121,31.8503311 7.06260121,31.5504844 C7.06260121,31.4501721 6.81422442,30.8481526 6.31803583,29.7427543 C5.82135289,28.6380101 5.35482545,27.4803475 4.91810039,26.2699847 C4.48088099,25.0589676 4.07621822,23.548758 3.70495955,21.7387018 C3.33200595,19.9287183 3.14627069,18.0125345 3.14627069,15.9918224 C3.14627069,13.9926992 3.32911046,12.0990493 3.69620245,10.3105821 C4.06294132,8.5230598 4.58264696,6.97345221 5.05228177,5.66328582 C5.52191657,4.35319212 5.88900855,3.17808393 6.35800776,2.13999659 C6.82771318,1.10190925 7.06260121,0.538197513 7.06260121,0.449515589 C7.06260121,0.149668919 6.79868763,0 6.26951868,0 C5.77333009,0 5.43286251,0.510284514 5.09846841,0.898813107 C4.76386244,1.2880686 4.33787189,1.90920552 3.82000242,2.76520416 C2.96752698,4.23027316 2.26314539,5.6435868 1.70756389,7.00405474 C1.1516999,8.36474076 0.728887337,9.77819978 0.437572516,11.2442138 C0.1456221,12.7098643 0,14.2925459 0,15.9918224" id="path2946"></path>
            </g>
        </g>
    </g>
</svg>